<?xml version="1.0" standalone="no"?>
<!DOCTYPE svg PUBLIC "-//W3C//DTD SVG 20010904//EN"
 "http://www.w3.org/TR/2001/REC-SVG-20010904/DTD/svg10.dtd">
<svg version="1.0" xmlns="http://www.w3.org/2000/svg"
 width="600.000000pt" height="480.000000pt" viewBox="0 0 600.000000 480.000000"
 preserveAspectRatio="xMidYMid meet">

<g transform="translate(0.000000,480.000000) scale(0.100000,-0.100000)"
fill="#000000" stroke="none">
<path d="M0 2400 l0 -2400 3000 0 3000 0 0 2400 0 2400 -3000 0 -3000 0 0
-2400z m2677 1277 c86 -44 119 -82 220 -253 54 -90 100 -164 103 -164 3 0 49
74 103 164 101 171 133 208 220 253 46 25 63 28 147 28 84 0 102 -3 152 -28
31 -15 74 -45 96 -67 24 -24 140 -211 296 -476 290 -492 299 -512 277 -632
-22 -120 -91 -211 -199 -264 -40 -19 -63 -23 -147 -23 -95 0 -103 2 -163 34
-82 45 -104 72 -214 257 -73 124 -93 153 -103 142 -7 -7 -51 -79 -98 -159
-128 -217 -209 -279 -367 -279 -159 0 -239 61 -368 280 -47 80 -90 151 -97
158 -10 11 -30 -18 -103 -142 -110 -185 -132 -212 -214 -257 -60 -32 -68 -34
-163 -34 -84 0 -107 4 -147 24 -109 53 -177 143 -199 263 -22 120 -13 141 272
625 139 235 263 442 277 458 37 44 99 87 156 107 75 27 194 20 263 -15z m1243
-1624 c0 -4 -12 -24 -26 -45 -20 -29 -33 -38 -55 -38 -34 0 -36 13 -9 58 16
26 26 32 55 32 19 0 35 -3 35 -7z m-2520 -198 l16 -100 12 70 c7 39 15 85 19
103 l5 33 57 -3 56 -3 3 -192 2 -193 -50 0 -50 0 -1 58 -1 57 -11 -55 c-11
-49 -15 -55 -39 -58 -24 -3 -27 1 -41 60 l-15 63 -1 -62 -1 -63 -45 0 -45 0 0
195 0 196 58 -3 57 -3 15 -100z m422 -12 c3 -65 3 -153 0 -195 l-5 -78 -43 0
-44 0 0 195 0 195 44 0 43 0 5 -117z m257 80 c5 -21 14 -56 19 -78 9 -37 10
-35 11 38 l1 77 45 0 45 0 0 -195 0 -195 -40 0 c-35 0 -40 3 -46 28 -3 15 -12
50 -19 77 l-13 50 -1 -77 -1 -78 -45 0 -45 0 0 195 0 195 40 0 c37 0 40 -2 49
-37z m381 -38 c0 -60 3 -75 15 -75 12 0 15 15 15 75 l0 75 45 0 45 0 0 -195 0
-195 -45 0 -45 0 0 75 c0 60 -3 75 -15 75 -12 0 -15 -15 -15 -75 l0 -75 -45 0
-45 0 0 195 0 195 45 0 45 0 0 -75z m632 13 l3 -63 15 60 c15 57 18 60 49 63
61 6 63 2 30 -97 l-30 -89 27 -89 c15 -48 29 -94 32 -101 3 -10 -7 -12 -44
-10 l-48 3 -17 65 -17 65 -1 -67 -1 -68 -45 0 -45 0 0 195 0 195 45 0 44 0 3
-62z m378 -13 c0 -60 3 -75 15 -75 12 0 15 15 15 75 l0 75 45 0 45 0 0 -195 0
-195 -45 0 -45 0 0 75 c0 60 -3 75 -15 75 -12 0 -15 -15 -15 -75 l0 -75 -45 0
-45 0 0 195 0 195 45 0 45 0 0 -75z m480 55 c18 -18 20 -33 20 -195 l0 -175
-45 0 -45 0 0 45 c0 33 -4 45 -15 45 -11 0 -15 -12 -15 -45 l0 -45 -45 0 -45
0 0 175 c0 212 1 215 105 215 52 0 69 -4 85 -20z m276 -7 c3 -16 12 -50 19
-78 l13 -50 1 78 1 77 45 0 45 0 0 -195 0 -195 -40 0 c-43 0 -37 -10 -68 115
-9 37 -10 35 -11 -37 l-1 -78 -45 0 -45 0 0 195 0 195 40 0 c35 0 40 -3 46
-27z m384 -48 c0 -60 3 -75 15 -75 12 0 15 15 15 75 l0 75 45 0 45 0 0 -195 0
-195 -45 0 -45 0 0 75 c0 60 -3 75 -15 75 -12 0 -15 -15 -15 -75 l0 -75 -45 0
-45 0 0 195 0 195 45 0 45 0 0 -75z"/>
<path d="M2483 3518 c-23 -29 -507 -854 -524 -894 -60 -134 -13 -225 85 -164
59 36 60 38 489 764 l71 119 -22 41 c-56 102 -88 147 -99 134z"/>
<path d="M3429 3439 c-30 -52 -53 -97 -51 -102 1 -4 59 -94 128 -199 69 -105
173 -272 231 -372 120 -206 171 -277 218 -306 99 -61 146 29 86 165 -45 102
-502 846 -551 898 -4 5 -32 -33 -61 -84z"/>
<path d="M2717 3085 l-56 -96 93 -162 c51 -89 118 -209 149 -267 32 -58 66
-116 76 -129 l19 -25 22 45 c12 24 89 155 171 290 l149 246 -56 96 -57 97
-115 -190 c-63 -104 -118 -188 -122 -185 -4 3 -48 76 -96 162 -48 87 -95 170
-104 186 l-17 27 -56 -95z"/>
<path d="M3856 1873 c-3 -3 -6 -33 -6 -65 0 -45 3 -58 15 -58 12 0 15 13 15
59 0 56 -9 79 -24 64z"/>
</g>
</svg>
